<mxfile host="app.diagrams.net" modified="2023-06-08T04:00:41.906Z" agent="Mozilla/5.0 (Windows NT 10.0; Win64; x64) AppleWebKit/537.36 (KHTML, like Gecko) Chrome/113.0.0.0 Safari/537.36" version="21.3.7" etag="Re1yT7NH-EDlUdhUuWK3" type="github">
  <diagram name="Page-1" id="u1INZ6ihFK8jOu5n5fcp">
    <mxGraphModel>
      <root>
        <mxCell id="0" />
        <mxCell id="1" parent="0" />
      </root>
    </mxGraphModel>
  </diagram>
</mxfile>
